<?xml version="1.0" encoding="UTF-8" standalone="no"?>
<!-- Created with Inkscape (http://www.inkscape.org/) -->
<svg
   xmlns:dc="http://purl.org/dc/elements/1.1/"
   xmlns:cc="http://creativecommons.org/ns#"
   xmlns:rdf="http://www.w3.org/1999/02/22-rdf-syntax-ns#"
   xmlns:svg="http://www.w3.org/2000/svg"
   xmlns="http://www.w3.org/2000/svg"
   xmlns:sodipodi="http://sodipodi.sourceforge.net/DTD/sodipodi-0.dtd"
   xmlns:inkscape="http://www.inkscape.org/namespaces/inkscape"
   width="48"
   height="48"
   id="svg2"
   sodipodi:version="0.32"
   inkscape:version="0.46"
   version="1.0"
   sodipodi:docname="note-add.svg"
   inkscape:output_extension="org.inkscape.output.svg.inkscape">
  <defs
     id="defs4">
    <inkscape:perspective
       sodipodi:type="inkscape:persp3d"
       inkscape:vp_x="0 : 526.18109 : 1"
       inkscape:vp_y="0 : 1000 : 0"
       inkscape:vp_z="744.09448 : 526.18109 : 1"
       inkscape:persp3d-origin="372.04724 : 350.78739 : 1"
       id="perspective10" />
  </defs>
  <sodipodi:namedview
     id="base"
     pagecolor="#ffffff"
     bordercolor="#666666"
     borderopacity="1.0"
     gridtolerance="10000"
     guidetolerance="10"
     objecttolerance="10"
     inkscape:pageopacity="0"
     inkscape:pageshadow="2"
     inkscape:zoom="2"
     inkscape:cx="-5.935479"
     inkscape:cy="40.649165"
     inkscape:document-units="px"
     inkscape:current-layer="layer1"
     showgrid="false"
     inkscape:window-width="1280"
     inkscape:window-height="753"
     inkscape:window-x="0"
     inkscape:window-y="25">
    <inkscape:grid
       type="xygrid"
       id="grid5482"
       visible="true"
       enabled="true" />
  </sodipodi:namedview>
  <metadata
     id="metadata7">
    <rdf:RDF>
      <cc:Work
         rdf:about="">
        <dc:format>image/svg+xml</dc:format>
        <dc:type
           rdf:resource="http://purl.org/dc/dcmitype/StillImage" />
      </cc:Work>
    </rdf:RDF>
  </metadata>
  <g
     inkscape:label="Layer 1"
     inkscape:groupmode="layer"
     id="layer1"
     transform="translate(-50,-410.36218)">
    <path
       style="opacity:1;fill:#ffffff;fill-opacity:1;fill-rule:nonzero;stroke:none;stroke-width:1px;stroke-linecap:butt;stroke-linejoin:miter;marker:none;marker-start:none;marker-mid:none;marker-end:none;stroke-miterlimit:4;stroke-dasharray:none;stroke-dashoffset:0;stroke-opacity:1;visibility:visible;display:inline;overflow:visible;enable-background:accumulate"
       d="M 74,410.36218 C 60.752,410.36218 50.000002,421.11419 50,434.36218 C 50,447.61018 60.751998,458.36218 74,458.36218 C 87.248,458.36218 97.999996,447.61018 98,434.36218 C 98,421.11418 87.247997,410.36219 74,410.36218 z M 73.125,415.86218 L 74.875,415.86218 C 76.606252,415.86218 78,417.25593 78,418.98718 L 78,429.86218 L 88.875,429.86218 C 90.60625,429.86218 92,431.25593 92,432.98718 L 92,434.73718 C 92,436.46843 90.60625,437.86218 88.875,437.86218 L 78,437.86218 L 78,448.73718 C 78.000002,450.46843 76.60625,451.86218 74.875,451.86218 L 73.125,451.86218 C 71.39375,451.86218 70,450.46843 70,448.73718 L 70,437.86218 L 59.125,437.86218 C 57.39375,437.86218 56,436.46843 56,434.73718 L 56,432.98718 C 56,431.25593 57.39375,429.86218 59.125,429.86218 L 70,429.86218 L 70,418.98718 C 70,417.25593 71.39375,415.86218 73.125,415.86218 z"
       id="path5480"
       sodipodi:nodetypes="cssscccccccccccccccccccccc"
       inkscape:export-filename="/home/kalle/devel/Sticky/addbutton.png"
       inkscape:export-xdpi="90"
       inkscape:export-ydpi="90" />
  </g>
</svg>
